<svg width="24" height="20" viewBox="0 0 24 20" fill="none" xmlns="http://www.w3.org/2000/svg">
<path d="M22.7917 9.03125L19.9271 11.2187C19.9792 10.8125 20 10.4062 20 10C20 4.48958 15.5104 0 10 0C4.48959 0 0 4.48958 0 10C0 15.5104 4.48959 20 10 20C10.6875 20 11.375 19.9271 12.0521 19.7917L11.8021 18.5729C11.2188 18.6979 10.6146 18.7604 10.0104 18.7604C5.1875 18.7604 1.26042 14.8333 1.26042 10.0104C1.26042 5.1875 5.1875 1.26042 10.0104 1.26042C14.8333 1.26042 18.7604 5.1875 18.7604 10.0104C18.7604 10.4583 18.7292 10.9167 18.6563 11.3542L16.4271 7.94792L15.625 8.47917L18.7917 13.3125L23.3854 9.80208L22.7917 9.03125Z" fill="black"/>
</svg>
